<svg xmlns="http://www.w3.org/2000/svg" viewBox="0 0 32 32">
  <rect width="32" height="32" rx="6" fill="#c8102e"/>
  <circle cx="16" cy="16" r="10" fill="white"/>
  <!-- Baseball stitches left -->
  <path d="M10 11 Q8 16 10 21" stroke="#c8102e" stroke-width="1.2" fill="none"/>
  <path d="M10 11 Q8 16 10 21" stroke="#c8102e" stroke-width="1.2" fill="none"/>
  <!-- tick marks left -->
  <line x1="10" y1="11" x2="8.5" y2="10.5" stroke="#c8102e" stroke-width="0.9"/>
  <line x1="9.5" y1="13" x2="7.8" y2="13" stroke="#c8102e" stroke-width="0.9"/>
  <line x1="9.5" y1="16" x2="7.8" y2="16" stroke="#c8102e" stroke-width="0.9"/>
  <line x1="9.5" y1="19" x2="7.8" y2="19" stroke="#c8102e" stroke-width="0.9"/>
  <line x1="10" y1="21" x2="8.5" y2="21.5" stroke="#c8102e" stroke-width="0.9"/>
  <!-- Baseball stitches right -->
  <path d="M22 11 Q24 16 22 21" stroke="#c8102e" stroke-width="1.2" fill="none"/>
  <!-- tick marks right -->
  <line x1="22" y1="11" x2="23.5" y2="10.5" stroke="#c8102e" stroke-width="0.9"/>
  <line x1="22.5" y1="13" x2="24.2" y2="13" stroke="#c8102e" stroke-width="0.9"/>
  <line x1="22.5" y1="16" x2="24.2" y2="16" stroke="#c8102e" stroke-width="0.9"/>
  <line x1="22.5" y1="19" x2="24.2" y2="19" stroke="#c8102e" stroke-width="0.9"/>
  <line x1="22" y1="21" x2="23.5" y2="21.5" stroke="#c8102e" stroke-width="0.9"/>
</svg>
